<svg xmlns="http://www.w3.org/2000/svg" viewBox="0 0 24 24" fill="#666670">
  <path d="M12.001 2C6.477 2 2 6.477 2 12c0 1.89.525 3.66 1.438 5.168L2.05 21.8a.5.5 0 0 0 .62.621l4.772-1.396A9.958 9.958 0 0 0 12 22c5.523 0 10-4.477 10-10S17.524 2 12.001 2zm4.653 13.71c-.21.594-1.227 1.137-1.675 1.176-.448.04-.866.2-2.916-.607-2.455-.968-3.998-3.475-4.12-3.637-.12-.16-.978-1.3-.978-2.48 0-1.18.617-1.76.836-2 .218-.24.475-.3.634-.3h.456c.145 0 .342.054.532.517.198.48.672 1.64.73 1.76.058.12.098.26.02.418-.08.158-.12.258-.239.397-.119.139-.25.31-.358.416-.119.119-.242.247-.104.484.139.238.617.986 1.323 1.596.909.8 1.675 1.048 1.913 1.167.238.12.377.1.516-.06.139-.16.595-.693.753-.932.159-.238.318-.199.535-.12.218.08 1.386.654 1.624.773.238.12.397.179.456.278.058.1.058.576-.152 1.17z"/>
</svg>
