<svg xmlns="http://www.w3.org/2000/svg" style="display: none;">
  <symbol id="logo-shape" viewBox="240 130 530 770">
    <path d="M 493.50 886.42 C503.98,888.25 508.06,888.27 516.50,886.49 C554.03,878.61 607.65,844.47 651.50,800.53 C680.80,771.17 706.81,736.00 724.44,701.87 C740.94,669.95 750.12,644.30 756.45,612.50 C760.89,590.19 761.50,582.84 761.47,552.50 C761.44,522.91 760.36,508.44 755.99,479.00 C738.84,363.46 693.67,267.31 625.37,200.97 C610.85,186.87 600.38,178.41 583.82,167.39 C548.32,143.78 510.25,132.49 482.48,137.34 C393.94,152.81 288.17,288.40 252.62,432.00 C230.50,521.38 234.14,598.27 264.03,673.00 C295.17,750.87 358.20,822.30 431.50,862.81 C451.99,874.14 476.36,883.42 493.50,886.42 ZM 474.29 710.97 C422.83,714.05 371.89,707.69 326.91,692.55 C309.63,686.73 303.02,683.38 300.66,679.24 C296.90,672.63 287.63,650.13 283.47,637.50 C273.99,608.69 270.00,581.92 270.00,547.03 C270.00,525.01 270.66,519.00 273.07,519.00 C273.69,519.00 277.86,521.43 282.35,524.39 C317.15,547.41 377.28,564.72 440.50,569.90 C545.46,578.51 644.32,555.10 717.22,504.37 C725.54,498.58 726.49,498.22 727.35,500.48 C731.21,510.52 730.09,588.78 725.91,601.70 C724.63,605.66 707.39,622.34 692.92,633.62 C634.48,679.17 558.95,705.89 474.29,710.97 ZM 508.59 539.95 C479.80,541.85 445.35,540.59 417.00,536.59 C364.49,529.17 321.64,513.24 289.92,489.34 C279.63,481.59 277.00,478.27 277.00,473.03 C277.00,467.96 282.39,441.86 286.15,428.76 C288.61,420.17 289.57,419.63 300.22,420.97 C312.25,422.48 344.40,422.23 362.11,420.49 C405.73,416.20 454.15,405.02 508.50,386.67 C559.61,369.42 613.74,346.10 651.29,325.15 C659.33,320.67 666.76,317.00 667.82,317.00 C675.90,317.00 707.97,397.63 718.42,444.26 C719.84,450.57 721.00,456.86 721.00,458.23 C721.00,461.22 708.32,473.82 696.88,482.19 C652.87,514.43 586.51,534.78 508.59,539.95 ZM 366.00 389.00 C359.67,389.57 343.25,390.30 329.50,390.62 C307.22,391.13 304.26,391.02 302.25,389.54 C299.21,387.31 299.40,384.43 303.22,374.70 C307.45,363.90 324.03,330.73 333.05,315.00 C365.38,258.66 406.65,210.15 441.74,187.26 C472.12,167.44 498.12,162.73 526.05,171.99 C564.99,184.91 612.09,225.08 644.76,273.26 C645.00,273.61 645.23,273.96 645.46,274.29 C648.93,279.39 650.89,282.29 650.48,284.79 C649.92,288.24 644.85,290.96 633.00,297.69 C614.45,308.21 576.63,327.16 558.50,335.01 C519.79,351.77 478.25,365.40 421.30,380.02 C408.46,383.32 382.79,387.49 366.00,389.00 ZM 520.50 853.53 C497.00,859.94 468.14,851.82 434.31,829.29 C403.35,808.67 364.74,771.87 338.68,738.15 C330.70,727.81 331.17,726.38 341.57,729.46 C358.05,734.36 386.48,739.11 414.00,741.58 C435.96,743.55 475.15,743.07 497.50,740.56 C528.33,737.10 563.12,729.91 588.00,721.86 C616.43,712.66 656.10,694.24 686.84,675.97 C701.21,667.43 705.00,666.03 705.00,669.28 C705.00,671.65 692.31,696.17 685.48,707.00 C641.75,776.32 570.00,840.05 520.50,853.53 Z" fill="#111114" />
  </symbol>
  <symbol id="icon-email" viewBox="0 0 24 24" fill="none" stroke="currentColor" stroke-width="2" stroke-linecap="round" stroke-linejoin="round">
    <rect x="2" y="4" width="20" height="16" rx="2" />
    <path d="m22 7-8.97 5.7a1.94 1.94 0 0 1-2.06 0L2 7" />
  </symbol>
  <symbol id="icon-wa" viewBox="0 0 24 24" fill="currentColor">
    <path d="M12.001 2C6.477 2 2 6.477 2 12c0 1.89.525 3.66 1.438 5.168L2.05 21.8a.5.5 0 0 0 .62.621l4.772-1.396A9.958 9.958 0 0 0 12 22c5.523 0 10-4.477 10-10S17.524 2 12.001 2zm4.653 13.71c-.21.594-1.227 1.137-1.675 1.176-.448.04-.866.2-2.916-.607-2.455-.968-3.998-3.475-4.12-3.637-.12-.16-.978-1.3-.978-2.48 0-1.18.617-1.76.836-2 .218-.24.475-.3.634-.3h.456c.145 0 .342.054.532.517.198.48.672 1.64.73 1.76.058.12.098.26.02.418-.08.158-.12.258-.239.397-.119.139-.25.31-.358.416-.119.119-.242.247-.104.484.139.238.617.986 1.323 1.596.909.8 1.675 1.048 1.913 1.167.238.12.377.1.516-.06.139-.16.595-.693.753-.932.159-.238.318-.199.535-.12.218.08 1.386.654 1.624.773.238.12.397.179.456.278.058.1.058.576-.152 1.17z" />
  </symbol>
  <symbol id="icon-arrow" viewBox="0 0 24 24" fill="none" stroke="currentColor" stroke-width="2.3" stroke-linecap="round" stroke-linejoin="round">
    <line x1="5" y1="12" x2="19" y2="12" />
    <polyline points="12 5 19 12 12 19" />
  </symbol>
  <symbol id="icon-close" viewBox="0 0 24 24" fill="none" stroke="currentColor" stroke-width="2.5" stroke-linecap="round">
    <line x1="18" y1="6" x2="6" y2="18" />
    <line x1="6" y1="6" x2="18" y2="18" />
  </symbol>
</svg>
